<svg xmlns="http://www.w3.org/2000/svg" viewBox="0 0 448 512" width="64" height="64" fill="#FFFFFF">
    <path d="M100.28 448H7.4V148.91h92.88V448zm-46.44-336c-29.86 0-54.11-24.26-54.11-54.11S24.98 3.82 54.84 3.82c29.87 0 54.11 24.26 54.11 54.11s-24.26 54.11-54.11 54.11zm396.84 336h-92.9V302.4c0-34.97-12.48-58.9-43.66-58.9-23.84 0-38.13 16.09-44.38 31.59-2.28 5.56-2.88 13.32-2.88 21.09V448h-92.9s1.21-249.17 0-275.27h92.9v39.04c-0.19.29-.45.67-.67 1.03h.67v-.67c12.28-18.83 34.1-45.75 82.84-45.75 60.28 0 105.43 39.27 105.43 123.55V448z"/>
</svg>