<svg xmlns="http://www.w3.org/2000/svg" width="64" height="64" viewBox="0 0 24 24" fill="#FFFFFF">
    <path d="M23.635 4.465c-.835.37-1.732.616-2.676.724a4.634 4.634 0 002.042-2.563 9.148 9.148 0 01-2.924 1.117A4.58 4.58 0 0016.617 3c-2.575 0-4.663 2.088-4.663 4.658 0 .365.04.72.118 1.062-3.875-.194-7.314-2.048-9.623-4.868a4.66 4.66 0 00-.632 2.34c0 1.62.826 3.047 2.08 3.878a4.589 4.589 0 01-2.106-.58v.058c0 2.254 1.602 4.135 3.735 4.57a4.648 4.648 0 01-2.1.08c.593 1.844 2.308 3.187 4.346 3.227a9.167 9.167 0 01-5.671 1.97c-.366 0-.726-.021-1.083-.063a12.933 12.933 0 006.985 2.048c8.394 0 13.004-6.95 13.004-12.975 0-.197-.005-.393-.014-.588a9.28 9.28 0 002.285-2.365z"/>
</svg>